{
	"asset":{
		"generator":"Khronos glTF Blender I/O v4.1.63",
		"version":"2.0"
	},
	"scene":0,
	"scenes":[
		{
			"name":"Scene",
			"nodes":[
				0
			]
		}
	],
	"nodes":[
		{
			"mesh":0,
			"name":"Part 5",
			"scale":[
				1000,
				1000,
				1000
			]
		}
	],
	"materials":[
		{
			"doubleSided":true,
			"name":"0.768627_0.886275_0.952941_0.000000_0.002",
			"pbrMetallicRoughness":{
				"baseColorFactor":[
					0.7686274647712708,
					0.886274516582489,
					0.9529411792755127,
					1
				],
				"metallicFactor":0
			}
		}
	],
	"meshes":[
		{
			"name":"mesh4_mesh.002",
			"primitives":[
				{
					"attributes":{
						"POSITION":0,
						"NORMAL":1
					},
					"indices":2,
					"material":0
				}
			]
		}
	],
	"accessors":[
		{
			"bufferView":0,
			"componentType":5126,
			"count":12427,
			"max":[
				1.6531672372366302e-05,
				1.9206816432415508e-05,
				5.000002602173481e-06
			],
			"min":[
				-1.546832936583087e-05,
				-1.879174669738859e-05,
				-3.2999980703607434e-06
			],
			"type":"VEC3"
		},
		{
			"bufferView":1,
			"componentType":5126,
			"count":12427,
			"type":"VEC3"
		},
		{
			"bufferView":2,
			"componentType":5123,
			"count":44076,
			"type":"SCALAR"
		}
	],
	"bufferViews":[
		{
			"buffer":0,
			"byteLength":149124,
			"byteOffset":0,
			"target":34962
		},
		{
			"buffer":0,
			"byteLength":149124,
			"byteOffset":149124,
			"target":34962
		},
		{
			"buffer":0,
			"byteLength":88152,
			"byteOffset":298248,
			"target":34963
		}
	],
	"buffers":[
		{
			"byteLength":386400,
			"uri":"Caster%20Only%20Base4.bin"
		}
	]
}
